<mxfile host="Electron" agent="Mozilla/5.0 (Windows NT 10.0; Win64; x64) AppleWebKit/537.36 (KHTML, like Gecko) draw.io/27.0.9 Chrome/134.0.6998.205 Electron/35.4.0 Safari/537.36" version="27.0.9">
  <diagram name="Page-1" id="C0P2vkEvkZV6GjhlVtem">
    <mxGraphModel dx="908" dy="828" grid="1" gridSize="10" guides="1" tooltips="1" connect="1" arrows="1" fold="1" page="1" pageScale="1" pageWidth="650" pageHeight="400" math="0" shadow="0">
      <root>
        <mxCell id="0" />
        <mxCell id="1" parent="0" />
        <mxCell id="bzqsVJ9PS4sXlLuxynTb-4" value="" style="line;strokeWidth=4;direction=south;html=1;perimeter=backbonePerimeter;points=[];outlineConnect=0;fontColor=#00CCCC;strokeColor=#7EA6E0;" vertex="1" parent="1">
          <mxGeometry x="40" y="79.16" width="10" height="190.84" as="geometry" />
        </mxCell>
        <mxCell id="bzqsVJ9PS4sXlLuxynTb-7" value="&lt;h1 style=&quot;margin-top: 0px;&quot;&gt;&lt;font style=&quot;color: rgb(126, 166, 224);&quot;&gt;Client&lt;/font&gt;&lt;/h1&gt;&lt;div&gt;&lt;font style=&quot;font-size: 9px;&quot; color=&quot;#7ea6e0&quot;&gt;Browser&lt;/font&gt;&lt;/div&gt;" style="text;html=1;whiteSpace=wrap;overflow=hidden;rounded=0;fontSize=7;spacing=2;fontFamily=Helvetica;fontStyle=0" vertex="1" parent="1">
          <mxGeometry x="40" y="20" width="80" height="39.16" as="geometry" />
        </mxCell>
        <mxCell id="bzqsVJ9PS4sXlLuxynTb-12" value="" style="line;strokeWidth=4;direction=south;html=1;perimeter=backbonePerimeter;points=[];outlineConnect=0;fontColor=#00CCCC;strokeColor=#B5739D;" vertex="1" parent="1">
          <mxGeometry x="210" y="79.16" width="10" height="190.84" as="geometry" />
        </mxCell>
        <mxCell id="bzqsVJ9PS4sXlLuxynTb-13" value="&lt;h1 style=&quot;margin-top: 0px;&quot;&gt;&lt;font style=&quot;color: rgb(181, 115, 157);&quot;&gt;Server&lt;/font&gt;&lt;/h1&gt;&lt;div&gt;&lt;span style=&quot;font-weight: normal;&quot;&gt;&lt;font style=&quot;color: rgb(181, 115, 157); font-size: 9px;&quot;&gt;NextJS on Vercel&lt;/font&gt;&lt;/span&gt;&lt;/div&gt;" style="text;html=1;whiteSpace=wrap;overflow=hidden;rounded=0;fontSize=7;spacing=2;fontFamily=Helvetica;fontStyle=0" vertex="1" parent="1">
          <mxGeometry x="210" y="20" width="80" height="39.16" as="geometry" />
        </mxCell>
        <mxCell id="bzqsVJ9PS4sXlLuxynTb-14" value="" style="line;strokeWidth=4;direction=south;html=1;perimeter=backbonePerimeter;points=[];outlineConnect=0;fontColor=#00CCCC;strokeColor=#FFB570;" vertex="1" parent="1">
          <mxGeometry x="510" y="79.16" width="10" height="190.84" as="geometry" />
        </mxCell>
        <mxCell id="bzqsVJ9PS4sXlLuxynTb-15" value="&lt;h1 style=&quot;margin-top: 0px;&quot;&gt;&lt;font style=&quot;color: rgb(255, 181, 112);&quot;&gt;Storage&lt;/font&gt;&lt;/h1&gt;&lt;div&gt;&lt;font style=&quot;font-size: 9px;&quot; color=&quot;#ffb570&quot;&gt;Cloudflare R2&lt;/font&gt;&lt;/div&gt;" style="text;html=1;whiteSpace=wrap;overflow=hidden;rounded=0;fontSize=7;spacing=2;fontFamily=Helvetica;fontStyle=0" vertex="1" parent="1">
          <mxGeometry x="510" y="20" width="130" height="40" as="geometry" />
        </mxCell>
        <mxCell id="bzqsVJ9PS4sXlLuxynTb-16" value="" style="endArrow=classic;html=1;rounded=0;strokeColor=#7EA6E0;" edge="1" parent="1">
          <mxGeometry width="50" height="50" relative="1" as="geometry">
            <mxPoint x="46.310344827586164" y="125.16" as="sourcePoint" />
            <mxPoint x="212.99999999999977" y="125.16" as="targetPoint" />
          </mxGeometry>
        </mxCell>
        <mxCell id="bzqsVJ9PS4sXlLuxynTb-17" value="&lt;font style=&quot;color: rgb(126, 166, 224);&quot;&gt;&lt;b&gt;1. &lt;/b&gt;Request presigned urls&lt;/font&gt;" style="text;html=1;align=left;verticalAlign=middle;whiteSpace=wrap;rounded=0;" vertex="1" parent="1">
          <mxGeometry x="50" y="99.16" width="150" height="20" as="geometry" />
        </mxCell>
        <mxCell id="bzqsVJ9PS4sXlLuxynTb-20" value="" style="endArrow=classic;html=1;rounded=0;strokeColor=#7EA6E0;" edge="1" parent="1" target="bzqsVJ9PS4sXlLuxynTb-14">
          <mxGeometry width="50" height="50" relative="1" as="geometry">
            <mxPoint x="47" y="173.74" as="sourcePoint" />
            <mxPoint x="484.5" y="173.74000000000007" as="targetPoint" />
          </mxGeometry>
        </mxCell>
        <mxCell id="bzqsVJ9PS4sXlLuxynTb-21" value="&lt;font style=&quot;color: rgb(126, 166, 224);&quot;&gt;&lt;b&gt;3.&lt;/b&gt; Direct upload to R2&lt;/font&gt;" style="text;html=1;align=left;verticalAlign=middle;whiteSpace=wrap;rounded=0;" vertex="1" parent="1">
          <mxGeometry x="50" y="144.16" width="150" height="30" as="geometry" />
        </mxCell>
        <mxCell id="bzqsVJ9PS4sXlLuxynTb-24" value="" style="line;strokeWidth=4;direction=south;html=1;perimeter=backbonePerimeter;points=[];outlineConnect=0;fontColor=#67AB9F;strokeColor=#67AB9F;" vertex="1" parent="1">
          <mxGeometry x="374" y="79.16" width="10" height="190.84" as="geometry" />
        </mxCell>
        <mxCell id="bzqsVJ9PS4sXlLuxynTb-25" value="&lt;h1 style=&quot;margin-top: 0px;&quot;&gt;&lt;font style=&quot;color: rgb(103, 171, 159);&quot;&gt;DB&lt;/font&gt;&lt;/h1&gt;&lt;div&gt;&lt;font style=&quot;font-size: 9px;&quot; color=&quot;#67ab9f&quot;&gt;PostgreSQL on Neon&lt;/font&gt;&lt;/div&gt;" style="text;html=1;whiteSpace=wrap;overflow=hidden;rounded=0;fontSize=7;spacing=2;fontFamily=Helvetica;fontStyle=0" vertex="1" parent="1">
          <mxGeometry x="374" y="20" width="106" height="50" as="geometry" />
        </mxCell>
        <mxCell id="bzqsVJ9PS4sXlLuxynTb-27" value="" style="endArrow=classic;html=1;rounded=0;strokeColor=#B5739D;" edge="1" parent="1" target="bzqsVJ9PS4sXlLuxynTb-24">
          <mxGeometry width="50" height="50" relative="1" as="geometry">
            <mxPoint x="216.65034482758614" y="126.16" as="sourcePoint" />
            <mxPoint x="331.9999999999998" y="126.15999999999988" as="targetPoint" />
          </mxGeometry>
        </mxCell>
        <mxCell id="bzqsVJ9PS4sXlLuxynTb-28" value="&lt;font style=&quot;color: rgb(181, 115, 157);&quot;&gt;&lt;b&gt;2. &lt;/b&gt;Create image record in db with status &quot;pending&quot;&lt;/font&gt;" style="text;html=1;align=left;verticalAlign=middle;whiteSpace=wrap;rounded=0;" vertex="1" parent="1">
          <mxGeometry x="224" y="92" width="150" height="20" as="geometry" />
        </mxCell>
        <mxCell id="bzqsVJ9PS4sXlLuxynTb-32" value="" style="endArrow=classic;html=1;rounded=0;strokeColor=#7EA6E0;" edge="1" parent="1">
          <mxGeometry width="50" height="50" relative="1" as="geometry">
            <mxPoint x="46.310344827586164" y="224" as="sourcePoint" />
            <mxPoint x="212.99999999999977" y="224" as="targetPoint" />
          </mxGeometry>
        </mxCell>
        <mxCell id="bzqsVJ9PS4sXlLuxynTb-33" value="" style="endArrow=classic;html=1;rounded=0;strokeColor=#B5739D;" edge="1" parent="1">
          <mxGeometry width="50" height="50" relative="1" as="geometry">
            <mxPoint x="218.82034482758613" y="223.16" as="sourcePoint" />
            <mxPoint x="379.17" y="223" as="targetPoint" />
          </mxGeometry>
        </mxCell>
        <mxCell id="bzqsVJ9PS4sXlLuxynTb-34" value="&lt;font style=&quot;color: rgb(181, 115, 157);&quot;&gt;&lt;b&gt;5. &lt;/b&gt;Update image record in db with status &quot;completed&quot;&lt;/font&gt;" style="text;html=1;align=left;verticalAlign=middle;whiteSpace=wrap;rounded=0;" vertex="1" parent="1">
          <mxGeometry x="224" y="190" width="150" height="20" as="geometry" />
        </mxCell>
        <mxCell id="bzqsVJ9PS4sXlLuxynTb-35" value="&lt;font style=&quot;color: rgb(126, 166, 224);&quot;&gt;&lt;b&gt;4.&lt;/b&gt; Notify server about upload status&lt;/font&gt;" style="text;html=1;align=left;verticalAlign=middle;whiteSpace=wrap;rounded=0;" vertex="1" parent="1">
          <mxGeometry x="50" y="192" width="150" height="20" as="geometry" />
        </mxCell>
      </root>
    </mxGraphModel>
  </diagram>
</mxfile>
